---
config:
  layout: dagre
  theme: default
  look: classic
title: Trackables Hierarchy
---
erDiagram
direction LR
v10181089910265758361["Conical Centrifugal Tube 50ml"]
v9544481565089671878["Rack"]
v13444319753015283651["Conical Centrifugal Tube 50ml Rack"]
v13155702850536887146["Polystyrene Box"]
v8548811675960366643["Coffee Filter Wrapper"]
v7530846438555914839["Organism"]
v2692529095222367358["Organism Sample"]
v5999423236796044149["Vial 1.5ml"]
v18010749517196016862["Sealed Cap for Vial 1.5ml"]
v687538945911337422["Splitted Cap for Vial 1.5ml"]
v17861048231469780263["Vial Insert 200μl"]
v10686246551180910190["Vial Rack 1.5ml (9x9)"]
v5744196771001504199["Pipette 1000µl"]
v1707169089007525802["Pipette Tip 1ml"]
v11097012991583483958["Pipette 200μl"]
v16241064888790812254["Pipette Tip 200μl"]
v15787414021154640041["Safelock Tube 2ml"]
v15512723906738152797["Ball Mill Machine"]
v13133083887129413343["Metal Bead 3mm"]
v17608407685098133983["Safelock Centrifuge"]
v10612703981642565095["Freezer -80°C"]
v3684575092101640463["Freeze dryer"]
v14367112300580664075["Phone"]
v17465652211803167993["Marker Arrow"]
v15479976297680484610["Photograph"]
v7312679374583726183["Volume Measuring Device"]
v14203264076095489080["Absolute Ethanol, >= 95%"]
v16814484122183993919["Bottle (1L)"]
v17738927608493399557["Distilled water"]
v16027784116929386765["Glove"]
v16296060202796890846["Weighing Scale"]
v7415183936707240764["Scalpel"]
v1593604694846029022["Panel"]
v13444319753015283651 ||--|| v9544481565089671878 : "child of"
v5999423236796044149 ||--|| v18010749517196016862 : "compatible with"
v5999423236796044149 ||--|| v687538945911337422 : "compatible with"
v5999423236796044149 ||--|| v17861048231469780263 : "compatible with"
v5744196771001504199 ||--|| v1707169089007525802 : "compatible with"
v11097012991583483958 ||--|| v16241064888790812254 : "compatible with"
v15512723906738152797 ||--|| v15787414021154640041 : "compatible with"
v17608407685098133983 ||--|| v15787414021154640041 : "compatible with"
v13133083887129413343 ||--|| v15787414021154640041 : "compatible with"
v10612703981642565095 ||--|| v10181089910265758361 : "compatible with"
v3684575092101640463 ||--|| v10181089910265758361 : "compatible with"
v15512723906738152797 ||--|| v13133083887129413343 : "compatible with"
v8548811675960366643 ||--|| v2692529095222367358 : "compatible with"
